HIERARCHY
ROOT Hips
{
	OFFSET 0.00000 0.00000 0.00000
	CHANNELS 6 Xposition Yposition Zposition Zrotation Yrotation Xrotation 
	JOINT LHipJoint
	{
		OFFSET 0 0 0
		CHANNELS 3 Zrotation Yrotation Xrotation
		JOINT LeftHip
		{
			OFFSET 1.36337 -1.57426 1.11036
			CHANNELS 3 Zrotation Yrotation Xrotation
			JOINT LeftKnee
			{
				OFFSET 2.38468 -6.55187 0.00000
				CHANNELS 3 Zrotation Yrotation Xrotation
				JOINT LeftAnkle
				{
					OFFSET 2.37166 -6.51609 0.00000
					CHANNELS 3 Zrotation Yrotation Xrotation
					JOINT LeftToe
					{
						OFFSET 0.29078 -0.79891 2.01393
						CHANNELS 3 Zrotation Yrotation Xrotation
						End Site
						{
							OFFSET 0.00000 -0.00000 1.07924
						}
					}
				}
			}
		}
	}
	JOINT RHipJoint
	{
		OFFSET 0 0 0
		CHANNELS 3 Zrotation Yrotation Xrotation
		JOINT RightHip
		{
			OFFSET -1.36349 -1.57426 1.11036
			CHANNELS 3 Zrotation Yrotation Xrotation
			JOINT RightKnee
			{
				OFFSET -2.29562 -6.30717 0.00000
				CHANNELS 3 Zrotation Yrotation Xrotation
				JOINT RightAnkle
				{
					OFFSET -2.40985 -6.62100 0.00000
					CHANNELS 3 Zrotation Yrotation Xrotation
					JOINT RightToe
					{
						OFFSET -0.23197 -0.63733 1.92232
						CHANNELS 3 Zrotation Yrotation Xrotation
						End Site
						{
							OFFSET -0.00000 -0.00000 1.01562
						}
					}
				}
			}
		}
	}
	JOINT lowerback
	{
		OFFSET 0 0 0
		CHANNELS 3 Zrotation Yrotation Xrotation
		JOINT Chest
		{
			OFFSET -0.08565 2.03602 -0.24562
			CHANNELS 3 Zrotation Yrotation Xrotation
			JOINT Chest2
			{
				OFFSET -0.00036 2.05693 0.00216
				CHANNELS 3 Zrotation Yrotation Xrotation
				JOINT lowerneck
				{
					OFFSET 0 0 0
					CHANNELS 3 Zrotation Yrotation Xrotation
					JOINT Neck
					{
						OFFSET -0.03664 1.69515 0.31789
						CHANNELS 3 Zrotation Yrotation Xrotation
						JOINT Head
						{
							OFFSET 0.00932 1.70181 -0.46013
							CHANNELS 3 Zrotation Yrotation Xrotation
							End Site
							{
								OFFSET 0.01243 1.77620 -0.19377
							}
						}
					}
				}
				JOINT LeftCollar
				{
					OFFSET 0 0 0
					CHANNELS 3 Zrotation Yrotation Xrotation
					JOINT LeftShoulder
					{
						OFFSET 3.74344 0.81315 -0.36647
CHANNELS 3 Zrotation Xrotation Yrotation
						JOINT LeftElbow
						{
OFFSET 0 -4.971850 -0.000000
CHANNELS 3 Zrotation Xrotation Yrotation
							JOINT LeftWrist
							{
OFFSET 0 -3.358110 0.000000
CHANNELS 3 Zrotation Xrotation Yrotation
								JOINT lhand
								{
									OFFSET 0 0 0
CHANNELS 3 Zrotation Xrotation Yrotation
									JOINT LFingers
									{
OFFSET 0 -0.622780 0.000000
CHANNELS 3 Zrotation Xrotation Yrotation
										End Site
										{
OFFSET 0 -0.502100 0.000000
										}
									}
								}
								JOINT LThumb
								{
OFFSET 0 0.000000 0.000000
CHANNELS 3 Zrotation Xrotation Yrotation
									End Site
									{
OFFSET 0 -0.509760 0.509760
									}
								}
							}
						}
					}
				}
				JOINT RightCollar
				{
					OFFSET 0 0 0
					CHANNELS 3 Zrotation Yrotation Xrotation
					JOINT RightShoulder
					{
						OFFSET -3.75385 0.50666 -0.06525
CHANNELS 3 Zrotation Xrotation Yrotation
						JOINT RightElbow
						{
OFFSET 0 -4.964930 -0.000000
CHANNELS 3 Zrotation Xrotation Yrotation
							JOINT RightWrist
							{
OFFSET 0 -3.349290 0.000000
CHANNELS 3 Zrotation Xrotation Yrotation
								JOINT rhand
								{
									OFFSET 0 0 0
CHANNELS 3 Zrotation Xrotation Yrotation
									JOINT RFingers
									{
OFFSET 0 -0.638040 0.000000
CHANNELS 3 Zrotation Xrotation Yrotation
										End Site
										{
OFFSET 0 -0.514410 0.000000
										}
									}
								}
								JOINT RThumb
								{
OFFSET 0 0.000000 0.000000
CHANNELS 3 Zrotation Xrotation Yrotation
									End Site
									{
OFFSET 0 -0.522260 0.522260
									}
								}
							}
						}
					}
				}
			}
		}
	}
}
MOTION
Frames: 12
Frame Time: 0.008333333333333333
-2.621800 16.848700 -0.607100 140.314000 84.927300 144.917000 0.000000 0.000000 0.000000 -18.528300 -9.879700 -3.661700 1.319000 7.273900 20.529300 1.294700 12.419400 -29.194800 0.135300 2.370900 6.531700 0.000000 0.000000 0.000000 10.751300 3.804900 -2.617400 -0.645200 -5.138600 14.304300 -0.095400 -19.087700 -27.748600 -0.095200 -1.990100 5.478400 -6.829700 -0.658000 -5.000900 0.421900 -0.465300 0.582000 4.239400 -0.364700 3.476000 -2.294500 1.709900 -24.441300 -0.261800 3.685800 26.319000 0.962100 1.433200 12.820000 -0.000000 0.000000 0.000000 -2.819500 -3.945300 -22.147800 11.267300 -18.696900 1.860700 24.107900 -6.549900 7.987300 0.000000 0.000000 0.000000 -7.125000 0.000000 0.000000 -1.982200 21.242600 -1.130000 -0.000000 0.000000 0.000000 -3.613100 -2.951600 18.411500 -12.241400 -20.165700 -2.184800 -16.434000 3.198900 30.640700 0.000000 0.000000 0.000000 7.125000 0.000000 -0.000000 17.612400 60.813900 -6.911200
-2.612319 16.850245 -0.617245 135.783150 84.939919 140.405604 0.000000 0.000000 0.000000 -18.977822 -9.909894 -3.323031 1.267892 7.137148 20.122271 1.234882 12.969885 -29.265861 0.111502 2.152381 5.926966 0.000000 0.000000 0.000000 10.286316 3.317784 -3.192994 -0.697972 -5.340360 14.881963 -0.162020 -18.318459 -27.242968 -0.093854 -1.975790 5.438699 -7.012545 -0.600846 -5.238011 0.326179 -0.350285 0.697363 4.251128 -0.321191 3.717172 -2.409635 1.692054 -24.593447 -0.186675 3.685744 26.345559 1.012562 1.429172 12.856795 0.000000 0.000000 0.000000 -2.849839 -4.228172 -21.268674 11.086020 -18.419972 1.802976 23.145227 -4.613123 7.925274 0.000000 0.000000 0.000000 -7.125000 0.000000 0.000000 -2.678609 21.374547 -1.519804 0.000000 0.000000 0.000000 -3.407113 -2.991730 17.349497 -12.455047 -20.483593 -2.259049 -15.944150 4.098195 31.482323 0.000000 0.000000 0.000000 7.125000 0.000000 0.000000 18.801083 61.490897 -7.699405
-2.611599 16.848963 -0.626462 134.759753 85.184739 139.414743 0.000000 0.000000 0.000000 -18.941790 -9.802987 -3.276881 1.256700 7.106600 20.031500 1.250204 13.072176 -29.459186 0.125392 2.280102 6.280468 0.000000 0.000000 0.000000 10.307342 3.077897 -3.451948 -0.705928 -5.369985 14.966974 -0.143466 -18.121734 -26.837399 -0.064195 -1.631921 4.489659 -6.766385 -0.531758 -5.304619 0.309684 -0.267006 0.752764 4.101961 -0.278959 3.799959 -2.407118 1.678668 -24.725674 -0.188968 3.664887 26.313733 1.008594 1.417758 12.870655 0.000000 0.000000 0.000000 -2.791158 -4.384968 -20.749965 10.962653 -18.230971 1.764251 22.373262 -3.443846 8.325044 0.000000 0.000000 0.000000 -7.125000 0.000000 0.000000 -3.246420 20.994047 -1.870828 0.000000 0.000000 0.000000 -3.134714 -2.918045 16.227787 -12.753013 -20.924044 -2.364521 -15.653847 4.931186 31.557509 0.000000 0.000000 0.000000 7.125000 0.000000 0.000000 19.177372 61.489870 -7.859424
-2.619344 16.851655 -0.637689 131.902805 85.551303 136.579075 0.000000 0.000000 0.000000 -18.942503 -9.995421 -3.211798 1.265343 7.130202 20.101579 1.341571 13.160737 -30.142765 0.204216 2.908184 8.023406 0.000000 0.000000 0.000000 10.285279 3.183253 -3.600499 -0.691259 -5.315043 14.809362 -0.117902 -17.971589 -26.433656 -0.057804 -1.550063 4.263721 -6.538589 -0.413028 -5.191577 0.305498 -0.133622 0.724438 3.980419 -0.203507 3.688539 -2.316686 1.663573 -24.757065 -0.318878 3.652101 26.359682 0.942298 1.402040 12.901224 0.000000 0.000000 0.000000 -2.807499 -4.470976 -19.956225 10.846762 -18.052981 1.728133 21.830306 -1.954304 8.372584 0.000000 0.000000 0.000000 -7.125000 0.000000 0.000000 -3.639768 20.978623 -2.099599 0.000000 0.000000 0.000000 -2.839781 -2.271199 15.192036 -13.380749 -21.842524 -2.593240 -15.085995 5.611747 31.865097 0.000000 0.000000 0.000000 7.125000 0.000000 0.000000 20.047018 61.637116 -8.301638
-2.622973 16.853044 -0.644371 130.768135 85.600188 135.502204 0.000000 0.000000 0.000000 -19.002433 -10.115646 -3.252692 1.268747 7.139331 20.128848 1.357369 13.266209 -30.337243 0.199229 2.874191 7.928598 0.000000 0.000000 0.000000 10.217418 3.182565 -3.698564 -0.683308 -5.285051 14.723390 -0.079323 -18.042181 -26.213063 -0.047914 -1.412354 3.884221 -6.526129 -0.444169 -5.179009 0.283696 -0.175500 0.738889 3.947237 -0.224572 3.701343 -2.229315 1.669265 -24.848732 -0.424604 3.662018 26.392909 0.890324 1.398301 12.937609 0.000000 0.000000 0.000000 -2.800435 -4.598873 -19.597073 10.780943 -17.951719 1.707802 21.899962 -1.584247 8.145585 0.000000 0.000000 0.000000 -7.125000 0.000000 0.000000 -3.585787 21.217374 -2.048875 0.000000 0.000000 0.000000 -2.835188 -2.383192 15.251356 -13.333449 -21.773740 -2.575687 -15.052962 5.519630 31.677574 0.000000 0.000000 0.000000 7.125000 0.000000 0.000000 19.926570 61.454193 -8.163017
-2.620352 16.855609 -0.648363 130.284513 85.655350 135.053504 0.000000 0.000000 0.000000 -19.010266 -10.135531 -3.211013 1.263877 7.126276 20.090054 1.383666 13.254386 -30.497429 0.199271 2.874235 7.928926 0.000000 0.000000 0.000000 10.196462 3.002999 -3.852558 -0.686270 -5.296319 14.755539 -0.086433 -17.816092 -25.966732 -0.050080 -1.443567 3.970102 -6.492512 -0.441371 -5.278270 0.277753 -0.165006 0.778855 3.923027 -0.222798 3.797665 -2.246505 1.671340 -24.800734 -0.418845 3.661993 26.291058 0.893096 1.398760 12.886070 0.000000 0.000000 0.000000 -2.750091 -4.668768 -19.506065 10.750950 -17.905430 1.698555 21.721617 -1.438886 8.372398 0.000000 0.000000 0.000000 -7.125000 0.000000 0.000000 -3.718374 20.985896 -2.144525 0.000000 0.000000 0.000000 -2.846321 -2.461846 15.183516 -13.290116 -21.710859 -2.559582 -15.099506 5.598341 31.898140 0.000000 0.000000 0.000000 7.125000 0.000000 0.000000 20.060257 61.671291 -8.323628
-2.621356 16.858152 -0.649908 128.977838 85.612142 133.779543 0.000000 0.000000 0.000000 -19.128362 -10.181517 -3.176020 1.249881 7.088015 19.976362 1.369220 13.381097 -30.513287 0.209628 2.947548 8.132694 0.000000 0.000000 0.000000 10.088555 3.165039 -3.924972 -0.696175 -5.333573 14.862486 -0.070638 -17.955878 -26.025127 -0.038894 -1.273238 3.501038 -6.602848 -0.456794 -5.302757 0.229997 -0.174055 0.774222 3.934582 -0.229049 3.808359 -2.056039 1.736418 -24.782536 -0.562217 3.731706 26.389577 0.819956 1.428213 12.929507 0.000000 0.000000 0.000000 -2.711069 -4.769192 -19.238412 10.644623 -17.741488 1.666021 21.701711 -1.346140 8.610635 0.000000 0.000000 0.000000 -7.125000 0.000000 0.000000 -3.736555 20.732284 -2.176447 0.000000 0.000000 0.000000 -2.762248 -2.314327 15.110736 -13.394298 -21.862222 -2.598310 -14.825275 5.545304 31.901964 0.000000 0.000000 0.000000 7.125000 0.000000 0.000000 20.359826 61.606839 -8.422494
-2.612578 16.860930 -0.652089 128.206172 85.644911 133.003374 0.000000 0.000000 0.000000 -19.163810 -10.094562 -3.106778 1.233644 7.043612 19.844670 1.324223 13.595318 -30.408579 0.194131 2.836982 7.825252 0.000000 0.000000 0.000000 10.056263 3.111341 -4.052488 -0.712619 -5.394779 15.038078 -0.045152 -17.987865 -25.855987 -0.038269 -1.261978 3.469931 -6.652777 -0.457999 -5.363997 0.217164 -0.167818 0.750153 3.949798 -0.226426 3.817452 -1.967678 1.745739 -24.768609 -0.613527 3.736425 26.531208 0.788316 1.431470 12.987646 0.000000 0.000000 0.000000 -2.665282 -4.726733 -19.196651 10.620783 -17.704741 1.658750 21.536318 -1.313273 8.491242 0.000000 0.000000 0.000000 -7.125000 0.000000 0.000000 -3.854053 20.870797 -2.233044 0.000000 0.000000 0.000000 -2.742660 -2.146172 15.172674 -13.426939 -21.909628 -2.610425 -14.907511 5.492026 31.586497 0.000000 0.000000 0.000000 7.125000 0.000000 0.000000 20.008385 61.333410 -8.140851
-2.604204 16.856656 -0.652718 128.586239 85.553656 133.357252 0.000000 0.000000 0.000000 -19.218122 -10.020992 -3.026565 1.222188 7.012107 19.751139 1.321537 13.461588 -30.274115 0.204776 2.913847 8.038951 0.000000 0.000000 0.000000 10.006853 3.052980 -4.025294 -0.725082 -5.440875 15.170522 -0.074639 -17.921527 -26.011629 -0.041301 -1.310524 3.603603 -6.759932 -0.511765 -5.394580 0.195944 -0.230436 0.698038 3.982634 -0.257043 3.788520 -1.933095 1.776380 -24.490374 -0.622363 3.764683 26.489041 0.780345 1.451358 12.915463 0.000000 0.000000 0.000000 -2.624393 -4.536502 -19.164623 10.701223 -17.828820 1.683253 21.412011 -1.327994 8.364120 0.000000 0.000000 0.000000 -7.125000 0.000000 0.000000 -3.941995 21.014583 -2.271491 0.000000 0.000000 0.000000 -2.727984 -1.995475 15.184543 -13.393159 -21.860487 -2.597843 -14.886989 5.509197 31.694719 0.000000 0.000000 0.000000 7.125000 0.000000 0.000000 20.120103 61.429209 -8.234312
-2.600500 16.859046 -0.654516 127.338701 85.612536 132.136516 0.000000 0.000000 0.000000 -19.252705 -9.947603 -3.020815 1.218397 7.001574 19.720021 1.332149 13.474528 -30.353951 0.203447 2.903950 8.011473 0.000000 0.000000 0.000000 9.977023 3.093945 -4.097052 -0.733543 -5.471992 15.259851 -0.093411 -17.812255 -26.019478 -0.042626 -1.330690 3.659146 -6.769550 -0.457506 -5.458742 0.203401 -0.154035 0.659824 4.002493 -0.217928 3.775804 -2.041358 1.732610 -24.175239 -0.722264 3.758870 26.256522 0.751704 1.430877 12.759283 0.000000 0.000000 0.000000 -2.741535 -4.559580 -18.962915 10.657935 -17.762036 1.670087 21.661790 -1.644912 9.450769 0.000000 0.000000 0.000000 -7.125000 0.000000 0.000000 -3.783798 19.835924 -2.278522 0.000000 0.000000 0.000000 -2.768935 -1.928505 14.989458 -13.368689 -21.825057 -2.588751 -14.710720 5.543604 31.853460 0.000000 0.000000 0.000000 7.125000 0.000000 0.000000 20.442603 61.533522 -8.422808
-2.591141 16.856871 -0.648308 129.587082 85.426058 134.323461 0.000000 0.000000 0.000000 -19.232016 -9.790453 -3.088586 1.227883 7.027663 19.797309 1.278605 13.525707 -30.048882 0.152895 2.518798 6.941898 0.000000 0.000000 0.000000 10.055770 3.488308 -3.714546 -0.732761 -5.468977 15.251257 -0.100877 -18.239621 -26.653747 -0.057898 -1.552138 4.269468 -6.955496 -0.586062 -5.488532 0.238736 -0.310335 0.699163 4.130454 -0.303634 3.854463 -1.992679 1.816169 -24.278591 -0.816953 3.900226 26.373475 0.735262 1.482399 12.829936 0.000000 0.000000 0.000000 -2.812303 -4.632027 -18.680788 10.630874 -17.720302 1.661864 22.103950 -2.373295 11.492824 0.000000 0.000000 0.000000 -7.125000 0.000000 0.000000 -3.528290 17.616696 -2.299378 0.000000 0.000000 0.000000 -2.818223 -1.941987 15.099124 -13.323847 -21.759922 -2.572122 -14.633210 5.429316 31.583988 0.000000 0.000000 0.000000 7.125000 0.000000 0.000000 20.301548 61.263963 -8.232151
-2.585805 16.850205 -0.648700 131.376836 85.452984 135.980962 0.000000 0.000000 0.000000 -19.120331 -9.851991 -2.999595 1.248680 7.084846 19.967039 1.309660 13.381643 -30.126053 0.154676 2.534603 6.985453 0.000000 0.000000 0.000000 10.215717 3.584514 -3.439578 -0.721014 -5.426151 15.127947 -0.077635 -18.462823 -26.768106 -0.062502 -1.613028 4.437376 -6.888774 -0.636151 -5.449037 0.277552 -0.384427 0.763534 4.126698 -0.343261 3.908243 -1.885418 1.855403 -24.439645 -0.984518 3.977080 26.470043 0.670028 1.500004 12.908243 0.000000 0.000000 0.000000 -2.827097 -4.648206 -18.653527 10.691897 -17.814441 1.680469 22.171997 -2.312308 11.291954 0.000000 0.000000 0.000000 -7.125000 0.000000 0.000000 -3.473219 17.825615 -2.247449 0.000000 0.000000 0.000000 -2.830583 -2.043591 15.130267 -13.259432 -21.666147 -2.548212 -14.671153 5.431498 31.328036 0.000000 0.000000 0.000000 7.125000 0.000000 0.000000 20.050880 61.035022 -8.016244
